<ttFont>
<head>
    <!-- Most of this table will be recalculated by the compiler -->
    <tableVersion value="1.0"/>
    <fontRevision value="2.01999"/>
    <checkSumAdjustment value="0x803aa50c"/>
    <magicNumber value="0x5f0f3cf5"/>
    <flags value="00000000 00000011"/>
    <unitsPerEm value="1000"/>
    <created value="Mon Sep 17 16:48:31 2018"/>
    <modified value="Mon Sep 17 16:48:31 2018"/>
    <xMin value="-454"/>
    <yMin value="-293"/>
    <xMax value="2159"/>
    <yMax value="968"/>
    <macStyle value="00000000 00000000"/>
    <lowestRecPPEM value="3"/>
    <fontDirectionHint value="2"/>
    <indexToLocFormat value="0"/>
    <glyphDataFormat value="0"/>
  </head>
          <CharString index="0">
            -101 callgsubr
            vhcurveto
            24 66 -106 callsubr
            return
          </CharString>
          <CharString index="1">
            rmoveto
            -48 -38 23 55 62 56 40 162 20 hvcurveto
            -135 vlineto
            -42 -47 -38 -23 -47 hhcurveto
            return
          </CharString>
          <CharString index="2">
            7 -58 rlineto
            68 298 hlineto
            -107 callgsubr
            return
          </CharString>
          <CharString index="3">
            -36 55 rlineto
            -27 -30 -39 -22 -45 hhcurveto
            -89 -61 75 111 112 64 76 88 39 30 -18 -25 28 hvcurveto
            42 54 -102 callsubr
            return
          </CharString>
          <CharString index="4">
            194 -12 rmoveto
            61 54 32 38 46 hvcurveto
            3 hlineto
            return
          </CharString>
          <CharString index="5">
            rlineto
            31 -34 -44 26 -64 hhcurveto
            -125 -109 -93 -163 return
          </CharString>
          <CharString index="6">
            45 hhcurveto
            -14 69 rmoveto
            -32 return
          </CharString>
          <CharString index="7">
            -101 callsubr
            -44 14 37 -43 hvcurveto
            return
          </CharString>
        <CharString name=".notdef">
          95 89 hmoveto
          476 660 -476 hlineto
          108 -602 rmoveto
          74 132 54 103 -105 callgsubr
          52 -103 73 -132 rlineto
          -129 329 rmoveto
          -50 94 -66 119 rlineto
          235 hlineto
          -66 -119 -49 -94 rlineto
          -175 -277 rmoveto
          462 vlineto
          127 -232 rlineto
          217 -230 rmoveto
          -126 230 126 232 rlineto
          endchar
        </CharString>
        <CharString name="A">
          endchar
        </CharString>
        <CharString name="B">
          endchar
        </CharString>
        <CharString name="C">
          endchar
        </CharString>
        <CharString name="D">
          endchar
        </CharString>
        <CharString name="E">
          endchar
        </CharString>
        <CharString name="F">
          endchar
        </CharString>
        <CharString name="G">
          endchar
        </CharString>
        <CharString name="H">
          endchar
        </CharString>
        <CharString name="I">
          endchar
        </CharString>
        <CharString name="J">
          endchar
        </CharString>
        <CharString name="K">
          endchar
        </CharString>
        <CharString name="L">
          endchar
        </CharString>
        <CharString name="M">
          endchar
        </CharString>
        <CharString name="N">
          endchar
        </CharString>
        <CharString name="O">
          endchar
        </CharString>
        <CharString name="P">
          endchar
        </CharString>
        <CharString name="Q">
          endchar
        </CharString>
        <CharString name="R">
          endchar
        </CharString>
        <CharString name="S">
          endchar
        </CharString>
        <CharString name="T">
          endchar
        </CharString>
        <CharString name="U">
          endchar
        </CharString>
        <CharString name="V">
          endchar
        </CharString>
        <CharString name="W">
          endchar
        </CharString>
        <CharString name="X">
          endchar
        </CharString>
        <CharString name="Y">
          endchar
        </CharString>
        <CharString name="Z">
          endchar
        </CharString>
        <CharString name="a">
          -54 -103 callsubr
          -105 callsubr
          -107 callsubr
          endchar
        </CharString>
        <CharString name="b">
          -5 297 -12 rmoveto
          111 99 97 166 150 -67 97 -126 -54 -54 -29 -39 -44 hvcurveto
          2 88 rlineto
          194 -82 vlineto
          -712 66 vlineto
          -103 callgsubr
          endchar
        </CharString>
        <CharString name="c">
          -102 -104 callgsubr
          endchar
        </CharString>
        <CharString name="space">
          endchar
        </CharString>
      <CharString index="0">
        121 -50 79 -119 -78 -68 -34 -29 -45 vhcurveto
        32 -57 rlineto
        26 38 51 26 56 hhcurveto
        80 20 -60 -62 hvcurveto
        -207 -23 -91 -53 -106 vvcurveto
        return
      </CharString>
      <CharString index="1">
        274 -12 rmoveto
        58 55 23 39 44 hvcurveto
        -104 callsubr
        -161 99 -93 129 hvcurveto
        return
      </CharString>
      <CharString index="2">
        rlineto
        4 hlineto
        return
      </CharString>
      <CharString index="3">
        -106 callgsubr
        return
      </CharString>
      <CharString index="4">
        7 50 rlineto
        3 hlineto
        -39 43 51 -23 -100 callsubr
        255 vlineto
        43 46 43 -102 callgsubr
        return
      </CharString>
      <CharString index="5">
        23 41 hhcurveto
        92 36 -72 -107 -120 -59 -73 -80 hvcurveto
        return
      </CharString>
      <CharString index="6">
        -87 61 -51 81 return
      </CharString>
</ttFont>
